/* XPM */
static char * grun2[] = {
"48 48 256 2",
"  	c None",
". 	c #040507",
"+ 	c #1A8638",
"@ 	c #9D351E",
"# 	c #124520",
"$ 	c #4EC93F",
"% 	c #98875B",
"& 	c #1E6729",
"* 	c #3BA835",
"= 	c #8F5849",
"- 	c #4C1C38",
"; 	c #506747",
"> 	c #9AAB46",
", 	c #514A3B",
"' 	c #0D2815",
") 	c #5C874E",
"! 	c #C45872",
"~ 	c #5667AB",
"{ 	c #292760",
"] 	c #8F5AAE",
"^ 	c #A6CEBC",
"/ 	c #60AAB8",
"( 	c #668BB7",
"_ 	c #D38699",
": 	c #9D450F",
"< 	c #514A94",
"[ 	c #9288BD",
"} 	c #2C2539",
"| 	c #304684",
"1 	c #CAA8C0",
"2 	c #914080",
"3 	c #57789F",
"4 	c #56969C",
"5 	c #9173AD",
"6 	c #96A7B1",
"7 	c #386A8A",
"8 	c #3C883F",
"9 	c #7CAAA5",
"0 	c #304B26",
"a 	c #2E1036",
"b 	c #BEE4C2",
"c 	c #22742A",
"d 	c #6EB398",
"e 	c #94B8BE",
"f 	c #3A983E",
"g 	c #9497C2",
"h 	c #714A96",
"i 	c #4E783A",
"j 	c #2F3B1E",
"k 	c #754A5B",
"l 	c #58EA4C",
"m 	c #7368A9",
"n 	c #48312E",
"o 	c #7C99B7",
"p 	c #17391D",
"q 	c #B0422A",
"r 	c #0D1814",
"s 	c #79CD53",
"t 	c #AF4282",
"u 	c #909884",
"v 	c #A959C0",
"w 	c #1B5926",
"x 	c #877441",
"y 	c #62A76A",
"z 	c #7698E8",
"A 	c #56599C",
"B 	c #AC73AC",
"C 	c #7AC4A1",
"D 	c #54593B",
"E 	c #72A8E6",
"F 	c #D5CCEB",
"G 	c #D571A9",
"H 	c #7B88B8",
"I 	c #7678AB",
"J 	c #ADA7AE",
"K 	c #8F67A1",
"L 	c #356826",
"M 	c #345A2E",
"N 	c #EAE7EE",
"O 	c #377534",
"P 	c #513BA1",
"Q 	c #AB5731",
"R 	c #599675",
"S 	c #40867A",
"T 	c #1A1A37",
"U 	c #392838",
"V 	c #8B72DF",
"W 	c #A48ACC",
"X 	c #449782",
"Y 	c #80A4E5",
"Z 	c #AF95C1",
"` 	c #707645",
" .	c #727AD3",
"..	c #1D262A",
"+.	c #5868E6",
"@.	c #7C88E9",
"#.	c #71B6E8",
"$.	c #3BB94B",
"%.	c #303867",
"&.	c #9499EB",
"*.	c #72335D",
"=.	c #B54D29",
"-.	c #B34E81",
";.	c #555BC4",
">.	c #6E672C",
",.	c #90A8EA",
"'.	c #2C1928",
").	c #AFB7B7",
"!.	c #8299E1",
"~.	c #E6F3EC",
"{.	c #214354",
"].	c #AE8684",
"^.	c #934F16",
"/.	c #2A2C3E",
"(.	c #7868CE",
"_.	c #407959",
":.	c #91B75C",
"<.	c #748874",
"[.	c #353849",
"}.	c #1A1818",
"|.	c #AB998F",
"1.	c #4F496B",
"2.	c #EB5E92",
"3.	c #365A86",
"4.	c #1D3644",
"5.	c #80ACE2",
"6.	c #81B7E7",
"7.	c #311C59",
"8.	c #BD2B21",
"9.	c #C4BBC1",
"0.	c #ABD9B2",
"a.	c #58B291",
"b.	c #D099A8",
"c.	c #672751",
"d.	c #27777F",
"e.	c #F873B1",
"f.	c #2D963F",
"g.	c #95D5A8",
"h.	c #755C9C",
"i.	c #B93774",
"j.	c #70BA75",
"k.	c #D05BB4",
"l.	c #8EDE64",
"m.	c #D7DBE5",
"n.	c #745624",
"o.	c #7A3BA4",
"p.	c #3EA854",
"q.	c #A27A61",
"r.	c #7C9A7A",
"s.	c #934D86",
"t.	c #893866",
"u.	c #6ECE2C",
"v.	c #DFAAB6",
"w.	c #92C6B2",
"x.	c #A9B456",
"y.	c #91C847",
"z.	c #AC3A4C",
"A.	c #8A644F",
"B.	c #31897D",
"C.	c #502469",
"D.	c #AAA882",
"E.	c #B267BF",
"F.	c #AC5A76",
"G.	c #54B7EB",
"H.	c #CF6789",
"I.	c #D066D2",
"J.	c #E8BAC6",
"K.	c #9B4D54",
"L.	c #51B559",
"M.	c #C2DACC",
"N.	c #8A727F",
"O.	c #49345C",
"P.	c #537967",
"Q.	c #736A75",
"R.	c #EF85B3",
"S.	c #944163",
"T.	c #C4C7D5",
"U.	c #D5E8DB",
"V.	c #52586F",
"W.	c #536971",
"X.	c #5C8782",
"Y.	c #6949DC",
"Z.	c #6E766D",
"`.	c #D47DA3",
" +	c #9442CA",
".+	c #BE4ECC",
"++	c #3F5ABC",
"@+	c #7CC77F",
"#+	c #BA4259",
"$+	c #874EC7",
"%+	c #5646C3",
"&+	c #3A3BA9",
"*+	c #6F3D59",
"=+	c #ED7CB7",
"-+	c #705464",
";+	c #928A97",
">+	c #6499E3",
",+	c #EED9DD",
"'+	c #B27BA8",
")+	c #F268B0",
"!+	c #765AD6",
"~+	c #935A71",
"{+	c #8768CC",
"]+	c #329A90",
"^+	c #4EA63A",
"/+	c #93A58E",
"(+	c #286950",
"_+	c #6488E5",
":+	c #5976DF",
"<+	c #4363B7",
"[+	c #364850",
"}+	c #E49BB6",
"|+	c #492940",
"1+	c #937CAD",
"2+	c #E9CBD7",
"3+	c #7EA280",
"4+	c #53A867",
"5+	c #8D7CE5",
"6+	c #67C26C",
"7+	c #417C8A",
"8+	c #217B54",
"9+	c #3A684B",
"0+	c #375551",
"a+	c #95B8F4",
"b+	c #AEA5ED",
"c+	c #AEB7E6",
"d+	c #90B88F",
"e+	c #8EC2EC",
"f+	c #80B674",
"g+	c #4E3C34",
"h+	c #180C16",
"i+	c #2B8741",
"j+	c #85BAAF",
"k+	c #C53738",
"l+	c #61A7E9",
"m+	c #8EC87A",
"n+	c #BE5694",
"o+	c #7EC5EB",
"p+	c #AFB794",
"q+	c #BB4E5B",
"r+	c #3E468A",
"s+	c #4B8646",
"t+	c #4B9742",
"u+	c #9F988E",
"v+	c #68967C",
"w+	c #818674",
"x+	c #BA997C",
"y+	c #9187E8",
"z+	c #F8F9FB",
"A+	c #C4AEF4",
"B+	c #204923",
"C+	c #3B2A74",
"D+	c #8A7E5C",
"E+	c #DC5C94",
"F+	c #BF447A",
"G+	c #9E3674",
"} [.D O 9+3.; 9+i s+t+_.M ; 8 8 * $.$ $.$ * ^+* f s+i i >.x >.n.^.^.^.@ : @ q @ =.: ^.8.8.k+k+8.",
"[.V.9+W.O _.W.; s+O ... . r M 8 f * ^+$.* f.c # ' r ' j 0 g+D >.n.^.^.: Q Q @ k+q =.Q =.k+k+k+k+",
"[.M ; 9+_._.s+_.0+r . . p L t+8 8 w L O f * f O M M D j , n.>.x A.^.= q Q @ =.q =.Q q #+! #+q+k+",
"w (+W.9+P.i 9+... . }.L 8 L B+p B+w c c w w c O O s+j ..D+A.` x A.= A.= K.^.q q =.#+q =.q+! ! #+",
"w (+_.8 9+0+r . . B+i 0 ' p w t+f+m+m+y.L.f.c & B+# j j p+u+A.x s.= K.= k @ K.S.q+z.q+q+q+q+F+F+",
"8+9+8 8 B+. . r M w ' p B+s+0.U.~.b g.6+$.* $.c w & 0 M T.).D+~+~+2 S.t.G+t.K.K.-.z.8.q+F.-.-.q+",
"8+& i+9+h+. ' 0+p ' ..w 4+U.z+~.0.s ^+8 8++ f $.& w M P.U.T.;+A.k s.= S.S.G+t K.s.z.F+i.-.-.! -.",
"(+S s+p . r (+p ' ' w y ~.z+U.d+a.t+t+f 8+B+(+i+8 # w r.N ).H Q.~+h.~+k S.S.K.F.F.t q+#+t n+-.n+",
"(+O w . . w p r p w i+U.z+U.f+P.s+7+S s+B.7 p w P.j p ).M./+P.Q.A Q.3 s.h 2 S.s.K.t -.F+! #+t F+",
"O M . . # & ' p w 8+^ z+U.d S _._._.7+_.R X 0 p (+0+B+U.m.u W.3 Q.m Q.h.] ~+~+~+~+F.t F+-.t F+F+",
"9+... r w r ' # c $.~.~.C i+(+d.8+_.7+_.X t+P.4.0 9+<.z+U./+P.V.3 A m h.2 s.~+] ~+~+F.-.-.t i.i.",
"L . . B+# ' # & 8+^ ~.M.]+d.8+7+S S d.t+]+_.7+V.0+3.6 m.T.H <+W.A m h.m h.h.5 ~+K K K K s.v  +-.",
"p . ' & r p & + f ~.U.j+f.X B.B.B.7+7+B.B.S 7+X.W.3 o e ( 3.<+A m m I m (.I 5 5 B N.N.K K s.] s.",
"r r w w ' # c i+0.~.M.4+B.7+X X S 7+B.S 7+S S 7+X.7+3 7 7+W.~ h.K (.K m K 5 1+1+5 N.K 5 ] E.] ] ",
"r w f.p # c + L.~.U.w.R R P.B.S B.7+7 B+r r r r r r T %.<+<+~ m m V I H H I ;+H H 1+[ [ 5 H ;+K ",
". c + ' # i+p.@+~.0.d ) X.S ]+]+X d.r . . . . . . . r ..%.;.m {+ .I 5+( @.o H I 5 W g !.g H 1+H ",
". $.+ p w f.* g.U.g.4+4 X.P.]+]+7+{.' 4.{.0+r+| r+| | | 3.~ m (.I  .z o z ( H H [ [ g o o ;+( ( ",
". $.& # & f.L.b b w.a.X a.X 4 X X 4...%./.../.C+%.{ | ++~ z _+ .z Y Y #.6.Y g ,.g ,.[ @.o !.9 Y ",
". $ w # 8+X a.U.b w.a.a.a.4 4 4 X 4.. {.~ %.4.&+&+%+,.N T.&.@. .Y 6.Y 5.e j+6.9 ,.!.!.g !.!.o 9 ",
". $ & B+i+t+d U.g.C j./ j.9 ( 4 X.++. /.;.%.{ &+;. .m.~.F ,.@.z 5.,.,.,.a+j+5.5.,.!.Y !.o z !.9 ",
". $ & # O ^+6+b g.6+C d 9 9 9 o o I . /.~ { { | +.c+~.m.b+!.y+!.,.,.a+6.o+#.5.,.Y !.,.5.E 5.E >+",
". l c w O p.6+g.C C C C j+j+9 o o ~ . ..++T { +++.F N T.&.5+[ !.e+a+a+5.e+o+,.5.5.6.6.Y z 5.l+/ ",
". l f B+O t+6+g.@+3+w.w.w.j+g H H [.. %.< T %.%+_+~.F b+y+y+y+!.,.a+a+6.o+6.6.E E 6.6.#.5.E l+G.",
". $ L.B+9+^+f+g.p+X.d e w.e g !.g '.. r+| ..%.++&.N T.y+V V !.@.5.,.o+#.o+o+#.o+E l+_+>+l+G.G.G.",
"' ^+y L M t+6+@+m+v+P.<.w.e e 6 Z r . ~ { { | %+c+m.b+5+E.5+y+y+a+&.#.#.#.6.6.o+!.>+>+>+>+G.G.G.",
"& L f 6+0 i j.6+g.d+Z.0+<.5.g I [.. } (.T { &+Y.F F &.5+V 5+5+y+!.5.e+o+#.5.#.E >+z >+_+>+l+>+z ",
"^+L O 6+y 9+) f+r.e 3+W.4.r }.. . h+A %+h+C+P !+N F &.5+@.5+@.y+,.,.6.,.5.5.>+l+z ( _+ .:+:+:+_+",
"u.t+M s+6+v+i R o ( w.o W.[.}.T O.h.(.7.7.C+%+b+N T.!.@.z @.z y+&.&.a+5.Y E l+>+@.H  .>+:++. .:+",
"u.s y 9+) f+d+P.` X.v+I ( I m m ;.P 7.7.C+%+y+z+N A+:+_+@.z @.z &.!.a+,.Y z >+>+H _+ .:+:++.;.+.",
"s l.@+t+M P.j.w.3+I X.Q.A V.O.O.[.O.< !+5+A+z+z+m.@.+.+.:+z z ,.&.z &.,.!.E ( !.>+(  .+.;.+.+.++",
"s y.s @+) 0 ) /+6 6 J 6 u ;+m 5 &.Z y+W b+,+z+N &.+.+.+._+z !.z &.&.,.&.,.g Y !.!.I m :+m ;.~ ++",
"y.y.:.y.) B+D 3+d+6 p+J g g 5+g W &.W Z b+F A+V ;.C+T T %.r+%...T T /.g+A [...T T %.< +.~ ;.+++.",
"y.y.d+` ... [+;+|.D.J 6 Z W ;+W W g y+y+y+5+Y.P h+. . . . . . . . . h+. . . . . . }.} < ;.;.++A ",
"x.:.p+D . r x u+D.;+J D.J N.[ Z g Z y+ .%+(.P { h+T { r+r+%.r+< A ~ V.A 1.1.1.V.A 1.&+< A <+++A ",
":.y.x.n . D D /.[.; J Z [./.1.J g V.{ } C+!+Y.P &+&+T T ;.V I C+/./.[.o H <+'.} { ~ _+3 ~ ~ ++++",
"> x.D., . -+x+k g+;+6 N.Q.n V.[ [ W 1.O.< $+Y.o. +C+a C+!+$+V 5 h./.<  .m r+m < [.A ).g A ++3.r+",
"> x.].` . g+].n., u+;+9.9.'+W 1+[ 1+O.C+%+!+$+ + +a a %+!+m (.{+1./.~ ~ A I (.r+[.I m.c+3 7 3.[+",
"> > ].].h+n ].U n ].2+z+N 1 5 5 1+5 '.{ v {+$+ +o.h+7.h ] (.I V /.[.I Q.5 1+I } } [ m.).3 0+3.{.",
"% % x+n.. U Q.'.n.q.z+z+F |.-+h 5 h '.O.{+E.v  +- a c.$+] ] K m .., ~ [ [ ;+I a } ).m./+V.[+%.[+",
"q.% % g+. n n...*+,+z+,+b.b.[.U m P /.h v .+v $+a 7.h ] ] K K *+/., ;+J ;+;+g+T %.).T.o V.0+0+{.",
"x % x }.. k U U q.N ,+J.`.`.h+}.] U } {+E..+v C.C.C.s.] K E.v U U Q./+/+u+u+[...W.m.T.<.[+0+g+{.",
">.= k . . = '.n b.N 2+}+`.F.. '.K '.C..+B I.2 t C.*.'+B 5 1+5 '.[.D+u+u /+w+}...].U.J Z.[+[+0+0 ",
"= ~+U . U *+'.*.,+N J._ `.n . |+s.7.*.k.I.E.o.s.C.2 '+E.W q.-+} D |.D.w+% D }.n J J u V.[.[.M 0+",
"k S.}.. *+n - Q ,+,+}+`.R.'.. t.*.-  +E.k.h =+h c.v '+K '+].g+} Q.u /+w+w+, .., ).; Z.[+[.B+B+0 ",
"k k h+. *+a U b.z+J.`.E+G a . t c.- F+k.G+I.e.2 c.n+H.'+].].} U % D.u+<.) j '., Q.Q.; M {.B+/.p ",
"1.*.}.. *+'.*.,+,+v.H.2.E+'.. -.c.- G+n+k.)+=+2 c.t._ b.Z A.} , 9.m.9.w+` j ..n w+p+` D # p p /.",
"t.*.- . g+F.b.N ,+b.E+E+E+c.h+t.E+F+)+e.e.R.=+=+H._ v.J.1 ].q.|.,+z+p+` P.` D > m.p+` M B+0 j p ",
"*+t.c.h+c.~+G 2+v.G ! 2.2.q+a S.2.)+e.e.R.=+=+R.R.R.}+}+_ `.'+|.9.T.u ` ` x i u F 3+D L B+j B+.."};
